<?xml version="1.0" encoding="UTF-8" standalone="no"?>
<svg
   xmlns:dc="http://purl.org/dc/elements/1.1/"
   xmlns:cc="http://creativecommons.org/ns#"
   xmlns:rdf="http://www.w3.org/1999/02/22-rdf-syntax-ns#"
   xmlns:svg="http://www.w3.org/2000/svg"
   xmlns="http://www.w3.org/2000/svg"
   viewBox="0 0 219.02267 220.464"
   height="220.464"
   width="219.02267"
   xml:space="preserve"
   id="svg2"
   version="1.1"><metadata
     id="metadata8"><rdf:RDF><cc:Work 
         rdf:about=""><dc:format>image/svg+xml</dc:format><dc:type
           rdf:resource="http://purl.org/dc/dcmitype/StillImage" /></cc:Work></rdf:RDF></metadata><defs
     id="defs6"><clipPath
       id="clipPath18"
       clipPathUnits="userSpaceOnUse"><path
         id="path16"
         d="M 0,165.348 H 164.267 V 0 H 0 Z" /></clipPath></defs><g
     transform="matrix(1.3333333,0,0,-1.3333333,0,220.464)"
     id="g10"><g
       id="g12"><g
         clip-path="url(#clipPath18)"
         id="g14"><g
           transform="translate(136.6005,28.0282)"
           id="g20"><path
             id="path22"
             style="fill:#192c33;fill-opacity:1;fill-rule:nonzero;stroke:none"
             d="m 0,0 c 14.008,14.091 22.666,33.506 22.666,54.944 0,43.043 -34.893,77.937 -77.937,77.937 -43.042,0 -77.936,-34.894 -77.936,-77.937 0,-43.043 34.894,-77.936 77.936,-77.936 8.33,0 16.352,1.312 23.877,3.731 l 46.027,-4.759 z" /></g><g
           transform="translate(65.4184,49.3046)"
           id="g24"><path
             id="path26"
             style="fill:#5ac8ce;fill-opacity:1;fill-rule:nonzero;stroke:none"
             d="m 0,0 h 1.755 c 0.588,0 1.076,-0.083 1.447,-0.246 0.248,-0.109 0.456,-0.275 0.635,-0.506 0.168,-0.216 0.25,-0.45 0.25,-0.714 0,-0.24 -0.071,-0.462 -0.218,-0.682 C 3.718,-2.374 3.497,-2.563 3.211,-2.709 2.921,-2.857 2.577,-2.933 2.188,-2.933 H 0 Z M 2.98,3.061 C 3.098,2.875 3.156,2.684 3.156,2.479 3.156,2.22 3.083,2.01 2.932,1.837 2.763,1.642 2.586,1.505 2.417,1.434 2.284,1.382 2.147,1.344 2.014,1.321 1.872,1.298 1.693,1.287 1.479,1.287 H 0 V 3.709 H 1.506 C 1.87,3.709 2.183,3.646 2.436,3.521 2.682,3.4 2.86,3.249 2.98,3.061 M 3.804,0.882 c 0.127,0.138 0.24,0.295 0.339,0.472 0.19,0.338 0.286,0.716 0.286,1.125 0,0.325 -0.07,0.646 -0.207,0.953 C 4.085,3.734 3.889,4.005 3.641,4.234 3.106,4.738 2.388,4.994 1.506,4.994 h -2.437 c -0.189,0 -0.342,-0.152 -0.342,-0.341 l -0.013,-8.517 c -10e-4,-0.091 0.036,-0.178 0.099,-0.242 0.064,-0.064 0.152,-0.1 0.242,-0.1 h 3.133 c 0.43,0 0.846,0.071 1.234,0.209 0.393,0.14 0.741,0.341 1.037,0.6 0.288,0.257 0.513,0.557 0.666,0.888 0.155,0.337 0.234,0.687 0.234,1.043 0,0.547 -0.167,1.042 -0.496,1.471 C 4.571,0.389 4.215,0.684 3.804,0.882" /></g><g
           transform="translate(79.7533,54.2987)"
           id="g28"><path
             id="path30"
             style="fill:#5ac8ce;fill-opacity:1;fill-rule:nonzero;stroke:none"
             d="m 0,0 h -0.59 c -0.188,0 -0.341,-0.153 -0.341,-0.341 v -5.307 c 0,-0.321 -0.061,-0.63 -0.178,-0.919 -0.117,-0.287 -0.284,-0.541 -0.495,-0.753 -0.222,-0.221 -0.476,-0.392 -0.756,-0.509 -0.552,-0.231 -1.199,-0.238 -1.767,0 -0.28,0.117 -0.535,0.288 -0.755,0.509 -0.211,0.212 -0.378,0.465 -0.495,0.753 -0.118,0.288 -0.178,0.597 -0.178,0.919 v 5.307 C -5.555,-0.153 -5.708,0 -5.896,0 h -0.59 c -0.189,0 -0.342,-0.153 -0.342,-0.341 v -5.307 c 0,-0.488 0.09,-0.958 0.266,-1.399 0.18,-0.445 0.442,-0.837 0.774,-1.159 0.335,-0.345 0.727,-0.616 1.165,-0.803 0.438,-0.188 0.9,-0.283 1.373,-0.283 0.492,0 0.961,0.096 1.394,0.283 0.432,0.187 0.821,0.458 1.15,0.796 0.339,0.33 0.602,0.722 0.781,1.166 0.177,0.44 0.267,0.911 0.267,1.399 v 5.307 C 0.342,-0.153 0.188,0 0,0" /></g><g
           transform="translate(87.9017,49.8651)"
           id="g32"><path
             id="path34"
             style="fill:#5ac8ce;fill-opacity:1;fill-rule:nonzero;stroke:none"
             d="m 0,0 c 0,0 -0.001,0 -0.001,0 -0.182,0.102 -0.402,0.188 -0.656,0.256 -0.24,0.064 -0.49,0.116 -0.747,0.152 l -0.465,0.067 c -0.343,0.042 -0.623,0.084 -0.841,0.121 -0.192,0.034 -0.367,0.088 -0.516,0.16 -0.252,0.126 -0.457,0.296 -0.627,0.522 -0.154,0.204 -0.232,0.406 -0.232,0.6 0,0.158 0.044,0.308 0.135,0.46 0.098,0.166 0.244,0.319 0.439,0.462 0.194,0.148 0.428,0.264 0.695,0.343 0.556,0.164 1.173,0.165 1.724,0 0.266,-0.08 0.503,-0.196 0.704,-0.345 C -0.207,2.661 -0.067,2.509 0.029,2.346 0.119,2.194 0.165,2.04 0.172,1.877 0.177,1.759 0.243,1.651 0.347,1.593 0.45,1.535 0.577,1.535 0.68,1.593 L 1.244,1.908 C 1.37,1.979 1.438,2.122 1.413,2.264 1.312,2.855 0.968,3.377 0.384,3.821 -0.284,4.298 -1.07,4.54 -1.95,4.54 -2.38,4.54 -2.802,4.477 -3.206,4.354 -3.607,4.229 -3.971,4.048 -4.289,3.817 -4.624,3.571 -4.887,3.282 -5.072,2.958 -5.262,2.622 -5.358,2.259 -5.358,1.878 c 0,-0.473 0.144,-0.917 0.429,-1.319 0.278,-0.391 0.661,-0.707 1.139,-0.941 0.302,-0.146 0.663,-0.253 1.109,-0.324 0.36,-0.058 0.57,-0.091 0.639,-0.102 0.869,-0.101 1.257,-0.229 1.423,-0.314 0.259,-0.141 0.461,-0.31 0.599,-0.502 0.129,-0.178 0.192,-0.361 0.192,-0.56 0,-0.352 -0.182,-0.656 -0.558,-0.932 -0.424,-0.317 -0.935,-0.47 -1.564,-0.47 -0.304,0 -0.597,0.042 -0.871,0.124 -0.269,0.081 -0.495,0.193 -0.705,0.354 -0.356,0.245 -0.539,0.544 -0.559,0.916 -0.007,0.118 -0.074,0.224 -0.176,0.281 -0.105,0.057 -0.229,0.056 -0.332,-10e-4 l -0.564,-0.314 c -0.129,-0.072 -0.197,-0.219 -0.169,-0.364 0.121,-0.618 0.471,-1.143 1.038,-1.56 0.316,-0.231 0.681,-0.412 1.084,-0.536 0.397,-0.123 0.82,-0.185 1.254,-0.185 0.882,0 1.667,0.242 2.338,0.722 0.338,0.248 0.6,0.543 0.78,0.879 0.184,0.342 0.277,0.708 0.277,1.086 0,0.442 -0.132,0.862 -0.393,1.247 C 0.801,-0.567 0.447,-0.252 0,0" /></g><g
           transform="translate(92.9486,54.2987)"
           id="g36"><path
             id="path38"
             style="fill:#5ac8ce;fill-opacity:1;fill-rule:nonzero;stroke:none"
             d="m 0,0 h -0.59 c -0.188,0 -0.341,-0.153 -0.341,-0.341 v -8.517 c 0,-0.189 0.153,-0.342 0.341,-0.342 H 0 c 0.188,0 0.342,0.153 0.342,0.342 v 8.517 C 0.342,-0.153 0.188,0 0,0" /></g><g
           transform="translate(103.1044,54.2987)"
           id="g40"><path
             id="path42"
             style="fill:#5ac8ce;fill-opacity:1;fill-rule:nonzero;stroke:none"
             d="m 0,0 h -0.59 c -0.188,0 -0.341,-0.153 -0.341,-0.341 v -6.004 l -5.293,6.328 c -0.092,0.111 -0.242,0.15 -0.379,0.103 -0.135,-0.049 -0.225,-0.178 -0.225,-0.322 v -8.622 c 0,-0.189 0.153,-0.342 0.342,-0.342 h 0.59 c 0.188,0 0.341,0.153 0.341,0.342 v 5.976 l 5.292,-6.341 C -0.196,-9.302 -0.1,-9.345 0,-9.345 c 0.039,0 0.079,0.007 0.116,0.02 0.136,0.05 0.226,0.178 0.226,0.322 v 8.662 C 0.342,-0.153 0.189,0 0,0" /></g><g
           transform="translate(112.1195,54.2987)"
           id="g44"><path
             id="path46"
             style="fill:#5ac8ce;fill-opacity:1;fill-rule:nonzero;stroke:none"
             d="m 0,0 h -5.517 c -0.189,0 -0.341,-0.153 -0.341,-0.341 v -8.517 c 0,-0.189 0.152,-0.342 0.341,-0.342 H 0 c 0.189,0 0.342,0.153 0.342,0.342 v 0.615 c 0,0.188 -0.153,0.341 -0.342,0.341 h -4.585 v 2.659 h 3.498 c 0.188,0 0.341,0.153 0.341,0.342 v 0.603 c 0,0.188 -0.153,0.341 -0.341,0.341 h -3.498 v 2.672 H 0 c 0.189,0 0.342,0.153 0.342,0.342 v 0.602 C 0.342,-0.153 0.189,0 0,0" /></g><g
           transform="translate(119.8617,49.8651)"
           id="g48"><path
             id="path50"
             style="fill:#5ac8ce;fill-opacity:1;fill-rule:nonzero;stroke:none"
             d="m 0,0 c 0,0 -0.001,0 -0.001,0 -0.181,0.102 -0.402,0.188 -0.656,0.256 -0.24,0.064 -0.489,0.116 -0.747,0.152 l -0.464,0.067 c -0.343,0.042 -0.624,0.084 -0.842,0.121 -0.191,0.034 -0.367,0.088 -0.516,0.16 -0.252,0.126 -0.457,0.296 -0.627,0.522 -0.153,0.204 -0.232,0.406 -0.232,0.6 0,0.158 0.044,0.308 0.135,0.46 0.098,0.166 0.244,0.319 0.439,0.462 0.194,0.148 0.428,0.264 0.695,0.343 0.557,0.164 1.173,0.165 1.725,0 0.265,-0.08 0.503,-0.196 0.703,-0.345 C -0.206,2.661 -0.066,2.509 0.029,2.346 0.119,2.194 0.166,2.04 0.172,1.877 0.177,1.759 0.243,1.651 0.347,1.593 0.45,1.535 0.577,1.535 0.681,1.593 L 1.244,1.908 C 1.37,1.979 1.438,2.122 1.414,2.264 1.312,2.855 0.968,3.377 0.385,3.821 -0.284,4.298 -1.07,4.54 -1.95,4.54 -2.38,4.54 -2.802,4.477 -3.205,4.354 -3.607,4.229 -3.971,4.048 -4.289,3.817 -4.624,3.571 -4.887,3.282 -5.072,2.958 -5.262,2.622 -5.358,2.259 -5.358,1.878 c 0,-0.473 0.144,-0.917 0.43,-1.319 0.277,-0.391 0.66,-0.707 1.138,-0.941 0.302,-0.146 0.663,-0.253 1.109,-0.324 0.36,-0.058 0.57,-0.091 0.639,-0.102 0.869,-0.101 1.257,-0.229 1.423,-0.314 0.259,-0.141 0.461,-0.31 0.6,-0.502 0.128,-0.178 0.191,-0.361 0.191,-0.56 0,-0.352 -0.182,-0.656 -0.557,-0.932 -0.425,-0.317 -0.936,-0.47 -1.565,-0.47 -0.304,0 -0.597,0.042 -0.871,0.124 -0.269,0.081 -0.495,0.193 -0.704,0.354 -0.357,0.245 -0.54,0.544 -0.56,0.916 -0.006,0.118 -0.073,0.224 -0.176,0.281 -0.104,0.057 -0.229,0.056 -0.332,-10e-4 l -0.563,-0.314 c -0.13,-0.072 -0.198,-0.219 -0.17,-0.364 0.122,-0.618 0.471,-1.143 1.039,-1.56 0.316,-0.231 0.68,-0.412 1.083,-0.536 0.398,-0.123 0.82,-0.185 1.254,-0.185 0.882,0 1.668,0.242 2.339,0.722 0.337,0.248 0.599,0.543 0.779,0.879 0.184,0.342 0.277,0.708 0.277,1.086 0,0.442 -0.132,0.862 -0.393,1.247 C 0.801,-0.567 0.447,-0.252 0,0" /></g><g
           transform="translate(129.9823,48.9281)"
           id="g52"><path
             id="path54"
             style="fill:#5ac8ce;fill-opacity:1;fill-rule:nonzero;stroke:none"
             d="m 0,0 c 0,0 0,0 0,0 -0.251,0.37 -0.605,0.685 -1.053,0.937 -0.182,0.102 -0.402,0.188 -0.656,0.256 -0.241,0.064 -0.49,0.116 -0.748,0.152 l -0.464,0.067 c -0.343,0.042 -0.623,0.084 -0.842,0.121 -0.191,0.034 -0.366,0.088 -0.515,0.16 -0.252,0.126 -0.457,0.296 -0.627,0.522 -0.154,0.204 -0.232,0.406 -0.232,0.6 0,0.158 0.044,0.308 0.135,0.46 0.098,0.166 0.244,0.319 0.439,0.462 0.193,0.148 0.427,0.264 0.694,0.343 0.557,0.164 1.174,0.165 1.725,0 C -1.878,4 -1.641,3.884 -1.44,3.735 -1.259,3.598 -1.119,3.446 -1.023,3.283 -0.934,3.131 -0.887,2.977 -0.88,2.814 -0.875,2.696 -0.809,2.588 -0.706,2.53 c 0.104,-0.058 0.231,-0.058 0.334,0 L 0.191,2.845 C 0.317,2.916 0.386,3.059 0.361,3.201 0.259,3.792 -0.084,4.314 -0.668,4.758 -1.336,5.235 -2.122,5.477 -3.002,5.477 -3.433,5.477 -3.854,5.414 -4.258,5.291 -4.659,5.166 -5.023,4.985 -5.341,4.754 -5.676,4.508 -5.939,4.219 -6.125,3.895 -6.314,3.559 -6.41,3.196 -6.41,2.815 c 0,-0.473 0.144,-0.917 0.429,-1.319 0.277,-0.391 0.661,-0.707 1.139,-0.941 0.301,-0.146 0.662,-0.253 1.109,-0.324 0.359,-0.058 0.569,-0.091 0.639,-0.102 0.869,-0.101 1.257,-0.229 1.423,-0.314 0.259,-0.141 0.461,-0.31 0.599,-0.502 0.129,-0.178 0.192,-0.361 0.192,-0.56 0,-0.352 -0.182,-0.656 -0.558,-0.932 -0.424,-0.317 -0.935,-0.47 -1.564,-0.47 -0.304,0 -0.598,0.042 -0.871,0.124 -0.27,0.081 -0.495,0.193 -0.705,0.354 -0.356,0.245 -0.539,0.544 -0.56,0.916 -0.006,0.118 -0.073,0.224 -0.175,0.281 -0.105,0.057 -0.229,0.056 -0.333,-0.001 l -0.563,-0.314 c -0.129,-0.072 -0.197,-0.219 -0.169,-0.364 0.121,-0.618 0.47,-1.143 1.038,-1.56 0.316,-0.231 0.681,-0.412 1.084,-0.536 0.397,-0.123 0.819,-0.185 1.254,-0.185 0.881,0 1.667,0.242 2.338,0.722 0.337,0.248 0.6,0.543 0.78,0.879 0.184,0.342 0.277,0.708 0.277,1.086 C 0.393,-0.805 0.261,-0.385 0,0" /></g><g
           transform="translate(32.6654,99.6845)"
           id="g56"><path
             id="path58"
             style="fill:#5ac8ce;fill-opacity:1;fill-rule:nonzero;stroke:none"
             d="m 0,0 c -0.466,0 -0.844,-0.378 -0.844,-0.844 v -9.399 c 0,-0.466 0.378,-0.844 0.844,-0.844 0.466,0 0.844,0.378 0.844,0.844 v 9.399 C 0.844,-0.378 0.466,0 0,0" /></g><g
           transform="translate(30.2968,85.5204)"
           id="g60"><path
             id="path62"
             style="fill:#5ac8ce;fill-opacity:1;fill-rule:nonzero;stroke:none"
             d="m 0,0 -3.448,-4.678 c -0.277,-0.375 -0.197,-0.904 0.179,-1.18 0.151,-0.111 0.326,-0.165 0.5,-0.165 0.259,0 0.515,0.119 0.681,0.343 L 1.36,-1.002 C 1.636,-0.627 1.556,-0.098 1.181,0.179 0.805,0.455 0.277,0.375 0,0" /></g><g
           transform="translate(133.1552,81.226)"
           id="g64"><path
             id="path66"
             style="fill:#5ac8ce;fill-opacity:1;fill-rule:nonzero;stroke:none"
             d="M 0,0 C -1.487,0 -2.905,0.273 -4.211,0.752 L -12.17,0 -9.465,4.62 c -1.327,1.767 -2.112,3.916 -2.112,6.241 0,5.999 5.183,10.862 11.577,10.862 6.394,0 11.578,-4.863 11.578,-10.862 C 11.578,4.863 6.394,0 0,0 m 15.67,17.118 c -0.834,2.033 -1.987,3.807 -3.459,5.321 -1.472,1.516 -3.199,2.71 -5.182,3.588 -1.974,0.872 -4.184,1.324 -6.419,1.366 -3.433,0.065 -6.922,-0.833 -9.701,-2.646 v 14.29 c 0,0.425 -0.145,0.787 -0.434,1.085 -0.29,0.298 -0.689,0.447 -1.2,0.447 h -4.212 c -0.392,0 -0.74,-0.145 -1.046,-0.434 -0.307,-0.29 -0.46,-0.655 -0.46,-1.098 V -4.057 c 0,-1.021 0.536,-1.532 1.608,-1.532 h 3.855 c 0.51,0 0.855,0.128 1.034,0.383 0.178,0.256 0.344,0.638 0.498,1.149 l 0.229,2.17 c 1.367,-1.369 2.815,-2.308 4.366,-2.915 2.15,-0.841 4.5,-1.045 7.118,-0.874 3.95,0.258 7.145,1.52 9.946,4.402 1.472,1.514 2.625,3.288 3.459,5.322 0.833,2.033 1.251,4.207 1.251,6.522 0,2.331 -0.418,4.514 -1.251,6.548" /></g><g
           transform="translate(65.8017,66.3212)"
           id="g68"><path
             id="path70"
             style="fill:#ffffff;fill-opacity:1;fill-rule:nonzero;stroke:none"
             d="m 0,0 c 0.662,0.387 1.485,0.44 2.205,0.125 0.312,-0.135 0.587,-0.33 0.819,-0.579 0.038,-0.04 0.089,-0.064 0.143,-0.066 0.053,0.002 0.108,0.019 0.148,0.056 l 0.312,0.293 C 3.709,-0.094 3.714,0.035 3.638,0.118 3.331,0.451 2.963,0.716 2.545,0.903 1.581,1.336 0.463,1.263 -0.426,0.736 c -0.5,-0.298 -0.903,-0.703 -1.196,-1.207 -0.295,-0.504 -0.444,-1.062 -0.444,-1.657 0,-0.601 0.149,-1.162 0.444,-1.667 0.293,-0.503 0.696,-0.908 1.197,-1.203 0.503,-0.294 1.059,-0.443 1.654,-0.443 h 2.219 c 0.114,0 0.206,0.092 0.206,0.205 v 3.052 c 0,0.113 -0.092,0.205 -0.206,0.205 H 0.983 c -0.114,0 -0.206,-0.092 -0.206,-0.205 v -0.425 c 0,-0.114 0.092,-0.206 0.206,-0.206 h 1.816 v -1.79 h -1.57 c -0.439,0 -0.853,0.112 -1.228,0.334 -0.376,0.224 -0.68,0.528 -0.9,0.905 -0.22,0.375 -0.331,0.792 -0.331,1.238 0,0.445 0.111,0.86 0.331,1.233 C -0.68,-0.522 -0.377,-0.221 0,0" /></g><g
           transform="translate(76.914,64.1552)"
           id="g72"><path
             id="path74"
             style="fill:#ffffff;fill-opacity:1;fill-rule:nonzero;stroke:none"
             d="m 0,0 c 0,-0.453 -0.112,-0.874 -0.332,-1.252 -0.219,-0.38 -0.522,-0.685 -0.899,-0.909 -0.75,-0.445 -1.725,-0.445 -2.474,0 -0.378,0.224 -0.682,0.53 -0.905,0.91 -0.223,0.378 -0.336,0.799 -0.336,1.251 0,0.452 0.113,0.873 0.336,1.252 0.223,0.379 0.527,0.686 0.905,0.91 0.375,0.222 0.791,0.335 1.237,0.335 0.445,0 0.862,-0.113 1.237,-0.335 0.377,-0.224 0.68,-0.53 0.899,-0.909 C -0.112,0.874 0,0.453 0,0 m -0.806,2.894 c -1.017,0.595 -2.307,0.595 -3.325,0 C -4.638,2.596 -5.044,2.186 -5.338,1.676 -5.632,1.165 -5.781,0.601 -5.781,0 c 0,-0.6 0.149,-1.164 0.443,-1.675 0.294,-0.511 0.7,-0.921 1.207,-1.218 0.508,-0.297 1.067,-0.448 1.663,-0.448 0.596,0 1.155,0.151 1.662,0.448 0.508,0.297 0.914,0.707 1.208,1.218 0.295,0.511 0.443,1.075 0.443,1.675 0,0.6 -0.148,1.164 -0.443,1.676 -0.294,0.51 -0.7,0.92 -1.208,1.218" /></g><g
           transform="translate(84.9149,64.1552)"
           id="g76"><path
             id="path78"
             style="fill:#ffffff;fill-opacity:1;fill-rule:nonzero;stroke:none"
             d="m 0,0 c 0,-0.453 -0.111,-0.874 -0.332,-1.252 -0.219,-0.38 -0.522,-0.685 -0.899,-0.909 -0.75,-0.445 -1.724,-0.445 -2.474,0 -0.378,0.224 -0.682,0.53 -0.905,0.91 -0.223,0.378 -0.335,0.799 -0.335,1.251 0,0.452 0.112,0.873 0.335,1.252 0.223,0.379 0.527,0.686 0.905,0.91 0.375,0.222 0.791,0.335 1.237,0.335 0.445,0 0.862,-0.113 1.237,-0.335 0.377,-0.224 0.68,-0.53 0.899,-0.909 C -0.111,0.874 0,0.453 0,0 m -0.806,2.894 c -1.017,0.595 -2.307,0.595 -3.324,0 C -4.638,2.596 -5.044,2.186 -5.338,1.676 -5.632,1.165 -5.781,0.601 -5.781,0 c 0,-0.6 0.149,-1.164 0.443,-1.675 0.294,-0.511 0.7,-0.921 1.208,-1.218 0.507,-0.297 1.066,-0.448 1.662,-0.448 0.596,0 1.155,0.151 1.662,0.448 0.508,0.297 0.914,0.707 1.209,1.218 0.294,0.511 0.443,1.075 0.443,1.675 0,0.6 -0.149,1.164 -0.443,1.676 -0.295,0.51 -0.701,0.92 -1.209,1.218" /></g><g
           transform="translate(88.2631,66.5858)"
           id="g80"><path
             id="path82"
             style="fill:#ffffff;fill-opacity:1;fill-rule:nonzero;stroke:none"
             d="M 0,0 H 1.136 C 1.839,0 2.398,-0.235 2.846,-0.718 3.047,-0.936 3.203,-1.194 3.31,-1.486 3.417,-1.779 3.472,-2.094 3.472,-2.421 3.472,-2.754 3.417,-3.073 3.31,-3.366 3.203,-3.657 3.047,-3.916 2.844,-4.136 2.402,-4.63 1.843,-4.87 1.136,-4.87 H 0 Z M 3.46,-0.147 C 3.171,0.169 2.823,0.416 2.427,0.587 2.031,0.758 1.597,0.845 1.136,0.845 H -0.63 c -0.114,0 -0.206,-0.092 -0.206,-0.205 V -5.5 c 0,-0.114 0.092,-0.206 0.206,-0.206 h 1.766 c 0.461,0 0.895,0.087 1.291,0.258 0.397,0.171 0.745,0.423 1.035,0.746 0.274,0.308 0.488,0.66 0.634,1.047 0.147,0.386 0.221,0.802 0.221,1.234 0,0.432 -0.074,0.848 -0.221,1.234 -0.147,0.388 -0.36,0.737 -0.636,1.04" /></g><g
           transform="translate(104.7084,67.4975)"
           id="g84"><path
             id="path86"
             style="fill:#ffffff;fill-opacity:1;fill-rule:nonzero;stroke:none"
             d="m 0,0 c -0.086,0.027 -0.179,-0.005 -0.23,-0.079 l -2.978,-4.257 -3.016,4.259 C -6.275,-0.004 -6.368,0.026 -6.454,0 -6.539,-0.027 -6.597,-0.106 -6.597,-0.196 v -6.216 c 0,-0.113 0.092,-0.206 0.206,-0.206 h 0.425 c 0.113,0 0.205,0.093 0.205,0.206 v 4.22 l 2.386,-3.366 c 0.038,-0.054 0.101,-0.087 0.167,-0.087 0.068,0 0.13,0.034 0.168,0.088 l 2.348,3.349 v -4.204 c 0,-0.113 0.091,-0.206 0.205,-0.206 h 0.425 c 0.114,0 0.206,0.093 0.206,0.206 v 6.216 C 0.144,-0.106 0.085,-0.027 0,0" /></g><g
           transform="translate(112.3666,64.1552)"
           id="g88"><path
             id="path90"
             style="fill:#ffffff;fill-opacity:1;fill-rule:nonzero;stroke:none"
             d="m 0,0 c 0,-0.453 -0.112,-0.874 -0.332,-1.252 -0.219,-0.38 -0.522,-0.685 -0.899,-0.909 -0.75,-0.445 -1.725,-0.445 -2.474,0 -0.378,0.224 -0.682,0.53 -0.905,0.91 -0.223,0.378 -0.336,0.799 -0.336,1.251 0,0.452 0.113,0.873 0.336,1.252 0.223,0.379 0.527,0.686 0.905,0.91 0.375,0.222 0.791,0.335 1.237,0.335 0.445,0 0.862,-0.113 1.237,-0.335 0.377,-0.224 0.68,-0.53 0.899,-0.909 C -0.112,0.874 0,0.453 0,0 m -0.806,2.894 c -1.017,0.595 -2.307,0.595 -3.325,0 C -4.638,2.596 -5.044,2.186 -5.338,1.676 -5.632,1.165 -5.781,0.601 -5.781,0 c 0,-0.6 0.149,-1.164 0.443,-1.675 0.294,-0.511 0.7,-0.921 1.207,-1.218 0.507,-0.297 1.067,-0.448 1.663,-0.448 0.596,0 1.155,0.151 1.662,0.448 0.507,0.297 0.914,0.707 1.208,1.218 0.294,0.511 0.443,1.075 0.443,1.675 0,0.6 -0.149,1.164 -0.443,1.676 -0.294,0.51 -0.7,0.92 -1.208,1.218" /></g><g
           transform="translate(117.4813,63.5878)"
           id="g92"><path
             id="path94"
             style="fill:#ffffff;fill-opacity:1;fill-rule:nonzero;stroke:none"
             d="M 0,0 C 0.065,0.005 0.129,0.011 0.193,0.019 0.4,0.044 0.612,0.105 0.819,0.199 1.134,0.332 1.41,0.552 1.64,0.854 1.874,1.164 1.993,1.518 1.993,1.909 1.993,2.158 1.937,2.403 1.827,2.639 1.718,2.871 1.561,3.08 1.358,3.262 1.15,3.448 0.906,3.594 0.629,3.694 0.355,3.793 0.059,3.843 -0.252,3.843 h -2.144 c -0.114,0 -0.206,-0.092 -0.206,-0.205 v -6.14 c 0,-0.114 0.092,-0.206 0.206,-0.206 h 0.424 c 0.114,0 0.206,0.092 0.206,0.206 v 5.509 h 1.514 C 0.034,3.007 0.289,2.951 0.504,2.841 0.72,2.73 0.88,2.594 0.993,2.423 1.104,2.258 1.157,2.09 1.157,1.909 1.157,1.708 1.094,1.528 0.964,1.358 0.828,1.182 0.666,1.048 0.491,0.965 0.228,0.857 -0.127,0.802 -0.564,0.802 H -1.32 C -1.399,0.802 -1.472,0.756 -1.506,0.684 -1.54,0.612 -1.529,0.527 -1.479,0.466 l 2.551,-3.099 c 0.039,-0.048 0.097,-0.075 0.159,-0.075 h 0.566 c 0.079,0 0.152,0.046 0.186,0.118 0.034,0.072 0.023,0.157 -0.027,0.218 z" /></g><g
           transform="translate(126.3168,67.4306)"
           id="g96"><path
             id="path98"
             style="fill:#ffffff;fill-opacity:1;fill-rule:nonzero;stroke:none"
             d="M 0,0 H -0.425 C -0.539,0 -0.63,-0.092 -0.63,-0.205 v -4.441 l -3.889,4.649 c -0.056,0.066 -0.148,0.09 -0.228,0.061 -0.081,-0.029 -0.135,-0.107 -0.135,-0.193 v -6.216 c 0,-0.113 0.092,-0.206 0.205,-0.206 h 0.426 c 0.113,0 0.205,0.093 0.205,0.206 v 4.422 l 3.889,-4.658 C -0.118,-6.629 -0.06,-6.655 0,-6.655 c 0.023,0 0.047,0.004 0.07,0.012 0.081,0.03 0.136,0.107 0.136,0.193 v 6.245 C 0.206,-0.092 0.114,0 0,0" /></g><g
           transform="translate(129.3773,67.4306)"
           id="g100"><path
             id="path102"
             style="fill:#ffffff;fill-opacity:1;fill-rule:nonzero;stroke:none"
             d="M 0,0 H -0.425 C -0.539,0 -0.63,-0.092 -0.63,-0.205 v -6.14 c 0,-0.113 0.091,-0.206 0.205,-0.206 H 0 c 0.113,0 0.206,0.093 0.206,0.206 v 6.14 C 0.206,-0.092 0.113,0 0,0" /></g><g
           transform="translate(136.6981,67.4306)"
           id="g104"><path
             id="path106"
             style="fill:#ffffff;fill-opacity:1;fill-rule:nonzero;stroke:none"
             d="M 0,0 H -0.425 C -0.539,0 -0.63,-0.092 -0.63,-0.205 v -4.441 l -3.889,4.649 c -0.056,0.066 -0.148,0.09 -0.228,0.061 -0.081,-0.029 -0.135,-0.107 -0.135,-0.193 v -6.216 c 0,-0.113 0.091,-0.206 0.205,-0.206 h 0.426 c 0.113,0 0.205,0.093 0.205,0.206 v 4.422 l 3.888,-4.658 c 0.04,-0.048 0.098,-0.074 0.158,-0.074 0.023,0 0.047,0.004 0.07,0.012 0.081,0.03 0.136,0.107 0.136,0.193 v 6.245 C 0.206,-0.092 0.114,0 0,0" /></g><g
           transform="translate(144.1513,64.3422)"
           id="g108"><path
             id="path110"
             style="fill:#ffffff;fill-opacity:1;fill-rule:nonzero;stroke:none"
             d="M 0,0 H -2.466 C -2.58,0 -2.671,-0.092 -2.671,-0.205 V -0.63 c 0,-0.114 0.091,-0.206 0.205,-0.206 h 1.816 v -1.79 h -1.57 c -0.44,0 -0.852,0.112 -1.228,0.334 -0.376,0.223 -0.679,0.528 -0.9,0.905 -0.219,0.376 -0.331,0.793 -0.331,1.238 0,0.444 0.112,0.859 0.331,1.233 0.22,0.373 0.522,0.674 0.899,0.895 0.663,0.387 1.485,0.44 2.205,0.125 0.312,-0.135 0.588,-0.33 0.819,-0.579 0.038,-0.04 0.089,-0.064 0.144,-0.066 0.047,0.002 0.107,0.019 0.147,0.056 L 0.178,1.808 C 0.26,1.885 0.265,2.014 0.189,2.096 -0.118,2.43 -0.485,2.695 -0.904,2.882 -1.868,3.315 -2.986,3.242 -3.875,2.715 -4.375,2.418 -4.778,2.012 -5.071,1.508 -5.365,1.005 -5.514,0.447 -5.514,-0.149 c 0,-0.602 0.149,-1.163 0.443,-1.667 0.294,-0.503 0.696,-0.908 1.197,-1.203 0.503,-0.294 1.06,-0.443 1.654,-0.443 H 0 c 0.114,0 0.206,0.092 0.206,0.205 v 3.052 C 0.206,-0.092 0.114,0 0,0" /></g><g
           transform="translate(96.535,102.8788)"
           id="g112"><path
             id="path114"
             style="fill:#ffffff;fill-opacity:1;fill-rule:nonzero;stroke:none"
             d="m 0,0 c 1.166,0 2.187,-0.212 3.034,-0.631 0.845,-0.418 1.558,-0.977 2.118,-1.662 0.56,-0.684 0.979,-1.479 1.244,-2.364 0.263,-0.875 0.396,-1.789 0.396,-2.716 V -24.51 c 0,-0.703 0.145,-1.011 0.266,-1.145 0.115,-0.128 0.405,-0.281 1.135,-0.281 h 3.881 c 0.458,0 0.793,0.123 1.024,0.374 0.233,0.254 0.352,0.652 0.352,1.181 v 17.027 c 0,1.9 -0.258,3.708 -0.765,5.373 C 12.179,-0.324 11.42,1.145 10.429,2.383 9.442,3.616 8.194,4.601 6.719,5.31 5.245,6.018 3.508,6.377 1.557,6.377 0.413,6.377 -0.706,6.25 -1.768,6 -2.828,5.751 -3.813,5.394 -4.696,4.938 -5.577,4.483 -6.364,3.928 -7.037,3.286 -7.707,2.646 -8.243,1.934 -8.633,1.166 l -0.254,-0.499 -0.287,0.48 c -0.497,0.83 -1.058,1.574 -1.669,2.212 -0.606,0.633 -1.296,1.175 -2.051,1.612 -0.753,0.436 -1.61,0.77 -2.545,0.992 -0.944,0.224 -2.011,0.337 -3.171,0.337 -1.225,0 -2.311,-0.121 -3.227,-0.362 -0.913,-0.239 -1.721,-0.56 -2.399,-0.954 -0.678,-0.393 -1.268,-0.853 -1.757,-1.367 -0.494,-0.521 -0.939,-1.073 -1.321,-1.638 l -0.468,-0.693 -0.375,3.291 c -0.071,0.318 -0.217,0.641 -0.427,0.928 -0.179,0.243 -0.457,0.361 -0.85,0.361 h -2.578 c -0.595,0 -1.095,-0.096 -1.485,-0.287 -0.205,-0.101 -0.478,-0.305 -0.478,-0.91 v -29.381 c 0,-0.413 0.1,-0.713 0.306,-0.918 0.202,-0.203 0.545,-0.306 1.02,-0.306 h 4.212 c 0.362,0 0.65,0.11 0.882,0.334 0.229,0.223 0.34,0.505 0.34,0.862 v 17.826 c 0.017,1.083 0.243,2.063 0.671,2.918 0.424,0.848 0.977,1.575 1.643,2.16 0.663,0.583 1.411,1.035 2.225,1.344 0.814,0.31 1.641,0.467 2.458,0.467 1.167,0 2.192,-0.217 3.049,-0.645 0.852,-0.426 1.561,-0.995 2.108,-1.692 0.541,-0.692 0.946,-1.486 1.202,-2.36 0.254,-0.867 0.382,-1.767 0.382,-2.676 V -24.51 c 0,-0.705 0.14,-1.014 0.257,-1.15 0.09,-0.103 0.353,-0.276 1.12,-0.276 h 3.905 c 0.934,0 1.351,0.472 1.351,1.528 v 17.01 c 0,1.104 0.174,2.123 0.518,3.029 0.345,0.909 0.825,1.698 1.428,2.346 0.606,0.648 1.338,1.154 2.175,1.502 C -1.89,-0.175 -0.973,0 0,0" /></g><g
           transform="translate(34.4677,73.5209)"
           id="g116"><path
             id="path118"
             style="fill:#ffffff;fill-opacity:1;fill-rule:nonzero;stroke:none"
             d="m 0,0 c -8.156,-0.844 -15.451,5.084 -16.294,13.24 -0.844,8.156 5.084,15.451 13.239,16.295 C 5.101,30.378 12.396,24.45 13.24,16.294 14.083,8.139 8.156,0.843 0,0 m 20.142,34.861 c -0.165,0.151 -0.296,0.181 -0.441,0.181 -0.773,0 -1.541,0.007 -2.303,0.019 -0.747,0.012 -1.499,0.017 -2.256,0.017 -0.221,0 -0.349,-0.022 -0.413,-0.039 -0.081,-0.135 -0.193,-0.382 -0.291,-0.812 -0.068,-0.613 -0.143,-1.212 -0.222,-1.802 -0.082,-0.61 -0.17,-1.23 -0.263,-1.863 -0.082,-0.551 -0.474,-1.006 -1.007,-1.166 -0.531,-0.161 -1.111,-0.001 -1.484,0.414 -0.778,0.864 -1.644,1.675 -2.574,2.411 -0.916,0.724 -1.918,1.363 -2.976,1.898 -1.045,0.527 -2.181,0.939 -3.375,1.224 -1.194,0.286 -2.492,0.431 -3.861,0.431 -1.944,0 -3.832,-0.257 -5.611,-0.763 -1.784,-0.509 -3.466,-1.231 -4.999,-2.148 -1.532,-0.918 -2.943,-2.04 -4.194,-3.334 -1.257,-1.3 -2.351,-2.756 -3.249,-4.327 -0.896,-1.565 -1.599,-3.283 -2.088,-5.106 -0.487,-1.819 -0.734,-3.731 -0.734,-5.685 0,-1.974 0.247,-3.885 0.733,-5.681 0.488,-1.797 1.188,-3.483 2.081,-5.009 0.896,-1.535 1.986,-2.948 3.239,-4.201 1.251,-1.25 2.662,-2.333 4.193,-3.218 1.531,-0.884 3.212,-1.573 4.995,-2.049 1.786,-0.476 3.682,-0.717 5.634,-0.717 1.359,0 2.633,0.149 3.788,0.443 1.163,0.296 2.252,0.707 3.24,1.222 0.996,0.518 1.939,1.138 2.803,1.842 0.892,0.727 1.743,1.516 2.526,2.345 0.423,0.445 1.081,0.574 1.639,0.321 0.559,-0.254 0.895,-0.834 0.837,-1.445 -0.042,-0.438 -0.063,-0.925 -0.063,-1.449 0,-0.639 -0.065,-1.222 -0.193,-1.734 -0.175,-1.646 -0.711,-3.16 -1.593,-4.502 -0.877,-1.336 -2.015,-2.489 -3.382,-3.425 -1.341,-0.921 -2.889,-1.632 -4.601,-2.112 -1.686,-0.475 -3.474,-0.716 -5.314,-0.716 -0.743,0 -1.595,0.049 -2.533,0.147 -0.957,0.1 -1.925,0.27 -2.876,0.505 -0.96,0.236 -1.893,0.539 -2.775,0.899 -0.965,0.394 -1.798,0.894 -2.473,1.483 -0.117,0.095 -0.195,0.118 -0.195,0.118 -0.072,0.021 -0.139,0.039 -0.201,0.054 -0.07,-0.062 -0.169,-0.16 -0.302,-0.313 l -2.568,-3.732 c -0.117,-0.163 -0.142,-0.225 -0.142,-0.225 -0.012,-0.058 -0.022,-0.137 -0.022,-0.213 0,-0.104 0.016,-0.143 0.017,-0.143 0.084,-0.113 0.198,-0.215 0.344,-0.305 0.045,-0.028 0.088,-0.057 0.129,-0.09 0.879,-0.685 1.867,-1.309 2.937,-1.854 1.083,-0.553 2.239,-1.026 3.439,-1.408 1.206,-0.383 2.456,-0.683 3.713,-0.892 1.248,-0.206 2.51,-0.31 3.751,-0.31 2.97,0 5.813,0.433 8.452,1.287 2.598,0.841 4.905,2.133 6.859,3.839 1.941,1.697 3.503,3.87 4.643,6.459 1.143,2.6 1.723,5.738 1.723,9.325 v 35.505 c 0,0.27 -0.085,0.348 -0.141,0.399" /></g><g
           transform="translate(129.3764,91.3773)"
           id="g120"><path
             id="path122"
             style="fill:#ffffff;fill-opacity:1;fill-rule:nonzero;stroke:none"
             d="M 0,0 C 0.234,0 0.439,-0.088 0.615,-0.263 0.79,-0.439 0.878,-0.644 0.878,-0.877 0.878,-1.112 0.79,-1.316 0.615,-1.492 0.439,-1.667 0.234,-1.755 0,-1.755 c -0.234,0 -0.438,0.088 -0.614,0.263 -0.176,0.176 -0.263,0.38 -0.263,0.615 0,0.233 0.087,0.438 0.263,0.614 C -0.438,-0.088 -0.234,0 0,0" /></g><g
           transform="translate(133.1513,91.3773)"
           id="g124"><path
             id="path126"
             style="fill:#ffffff;fill-opacity:1;fill-rule:nonzero;stroke:none"
             d="M 0,0 C 0.233,0 0.438,-0.088 0.614,-0.263 0.79,-0.439 0.877,-0.644 0.877,-0.877 0.877,-1.112 0.79,-1.316 0.614,-1.492 0.438,-1.667 0.233,-1.755 0,-1.755 c -0.235,0 -0.439,0.088 -0.615,0.263 -0.175,0.176 -0.263,0.38 -0.263,0.615 0,0.233 0.088,0.438 0.263,0.614 C -0.439,-0.088 -0.235,0 0,0" /></g><g
           transform="translate(136.9257,91.3773)"
           id="g128"><path
             id="path130"
             style="fill:#ffffff;fill-opacity:1;fill-rule:nonzero;stroke:none"
             d="M 0,0 C 0.234,0 0.439,-0.088 0.614,-0.263 0.79,-0.439 0.877,-0.644 0.877,-0.877 0.877,-1.112 0.79,-1.316 0.614,-1.492 0.439,-1.667 0.234,-1.755 0,-1.755 c -0.235,0 -0.439,0.088 -0.615,0.263 -0.175,0.176 -0.263,0.38 -0.263,0.615 0,0.233 0.088,0.438 0.263,0.614 C -0.439,-0.088 -0.235,0 0,0" /></g></g></g></g></svg>